# xmcd
# 
# Track frame offsets:
#     150
#     18840
#     37472
# 
# Disc length: 746
# 
# Revision: 1
# Processed by: cddbd v1.5.2PL0 Copyright (c) Steve Scherf et al.
# Submitted via: BonkEnc v1.0.8
# 
DISCID=2002e803
DTITLE=J-WALK - 何も言えなくて・・・夏
DYEAR=1991
DGENRE=JPop
TTITLE0=何も言えなくて・・・夏
TTITLE1=What can I say to you...?
TTITLE2=何も言えなくて・・・夏(INSTRUMENTAL VERSION)
EXTD=YEAR: 1991
EXTT0=
EXTT1=
EXTT2=
PLAYORDER=
